<svg xmlns="http://www.w3.org/2000/svg" viewBox="0 0 1200 440" width="1200" height="440" style="background:#F8FAFC; font-family:Arial,Helvetica,sans-serif">
<text x="600" y="26" text-anchor="middle" font-size="15" font-weight="700" fill="#0F172A">Migration Inference: From Anomaly to Hypothesis</text>
<ellipse cx="230" cy="340" rx="115" ry="80" fill="#E0F2FE" stroke="#0EA5E9" stroke-width="2.5" opacity="0.55"/>
<text x="230" y="365" text-anchor="middle" font-size="11" fill="#0369A1" font-weight="600">Cerebellum</text>
<text x="230" y="380" text-anchor="middle" font-size="9" fill="#0369A1">ω=85 Bergmann</text>
<ellipse cx="680" cy="120" rx="140" ry="90" fill="#FEF2F2" stroke="#EF4444" stroke-width="2.5" opacity="0.55"/>
<text x="680" y="100" text-anchor="middle" font-size="12" fill="#991B1B" font-weight="600">Cortex</text>
<text x="680" y="116" text-anchor="middle" font-size="10" fill="#991B1B">ω=121.8 Astro</text>
<text x="680" y="132" text-anchor="middle" font-size="10" fill="#991B1B">ω=22 OPC</text>
<ellipse cx="510" cy="300" rx="55" ry="45" fill="#F0FDF4" stroke="#16A34A" stroke-width="2.5" opacity="0.6"/>
<text x="510" y="294" text-anchor="middle" font-size="11" fill="#166534" font-weight="600">SVZ</text>
<text x="510" y="310" text-anchor="middle" font-size="9" fill="#166534">ω=3.2 OPC</text>
<ellipse cx="760" cy="265" rx="60" ry="42" fill="#FEFCE8" stroke="#F59E0B" stroke-width="2" opacity="0.5"/>
<text x="760" y="263" text-anchor="middle" font-size="10" fill="#92400E">Hipp ω=45</text>
<ellipse cx="615" cy="230" rx="52" ry="38" fill="#F5F3FF" stroke="#7C3AED" stroke-width="2" opacity="0.5"/>
<text x="615" y="233" text-anchor="middle" font-size="10" fill="#5B21B6">Striatum ω=38</text>
<defs><filter id="glow"><feGaussianBlur stdDeviation="4" result="blur"/><feMerge><feMergeNode in="blur"/><feMergeNode in="SourceGraphic"/></feMerge></filter><marker id="arrRed" markerWidth="12" markerHeight="9" refX="10" refY="4.5" orient="auto"><path d="M0,0 L12,4.5 L0,9" fill="#DC2626"/></marker></defs>
<path d="M 538 300 C 600 220, 640 180, 670 140" stroke="#DC2626" stroke-width="5" fill="none" stroke-dasharray="10,5" opacity="0.9" filter="url(#glow)" marker-end="url(#arrRed)"/>
<rect x="542" y="222" width="130" height="22" rx="11" fill="#FEF2F2" stroke="#FCA5A5" stroke-width="1.5"/>
<text x="607" y="237" text-anchor="middle" font-size="11" font-weight="700" fill="#DC2626">OPC Migration</text>
<rect x="35" y="400" width="1130" height="32" rx="8" fill="#0D9488"/>
<text x="600" y="422" text-anchor="middle" font-size="10" font-weight="600" fill="white">CKI identifies migration via ω deviation: OPC SVZ→Cortex similarity exceeds inter-type divergence within Cortex</text>
</svg>